<?xml version="1.0" encoding="UTF-8"?>
<svg id="Camada_1" xmlns="http://www.w3.org/2000/svg" version="1.1" viewBox="0 0 3595.28 841.89">
  <!-- Generator: Adobe Illustrator 29.8.4, SVG Export Plug-In . SVG Version: 2.1.1 Build 6)  -->
  <defs>
    <style>
      .st0 {
        fill: #010101;
      }

      .st1 {
        fill: #6b7381;
      }

      .st2 {
        fill: #0757a2;
      }
    </style>
  </defs>
  <g>
    <g>
      <g>
        <path class="st2" d="M718.05,390.27c-1.2-8.45-2.89-15.49-5.07-20.07-2.39-4.96-8.79-13.59-12.71-17.39-9.2-8.94-23.21-15.44-35.87-17.36-5.87-.88-10.4-.03-13.8-.73-3.85-.78-6.26-3.61-7.62-13.39.52-.42,1.04-.83,1.53-1.3,21.73-18.53,27.47-53,14.92-78.37-.16-.31-.31-.62-.52-.96-3.95-7.02-16.09-20.69-29.14-33.66-1.56-1.56-3.12-3.09-4.68-4.6-.18-.21-.39-.39-.6-.57-10.32-9.93-20.61-18.84-27.34-23.19-1.43-.91-2.7-1.64-3.77-2.11-19.47-8.6-40.44-8.21-59.24,2.03-6.73,3.69-11.41,9.38-17.31,13.72-.91.68-1.82,1.3-2.81,1.9-7.72-1.64-10.68-4.31-11.77-7.95-1.4-4.47-.03-10.4-1.14-17.7-3.3-21.31-23.29-42.5-43.85-48.42-.08-.03-.18-.05-.26-.08-8.08-2.29-25.13-3.41-43.04-3.22v47.67c10.4.05,20.46.39,25.39.99,6.55.81,10.55,3.56,12.92,7.49,6.21,10.19,1.59,28.2,3.35,39.53,2.47,16.04,25.6,19.75,38.44,24.8,9.8,3.85,16.97,10.92,28.51,10.06,16.48-1.25,26.15-24.54,39.79-28.49,5.12-1.48,10.76-.26,17.54,5.85,7.1,6.37,30.49,29.58,35.32,36.41,3.61,5.09,4.18,9.54,2.96,13.65-4.03,13.49-27.58,23.47-28.54,41.25-.49,9.05,9.23,25.63,13.15,34.67,6.81,15.67,5.95,30.15,27.81,32.36,8.5.86,23.94-2.13,33.27,1.98,3.9,1.72,6.73,4.7,7.51,9.72,1.66,10.66,1.43,47.44.13,58.56-.68,5.85-3.59,9.41-7.69,11.54-10.61,5.56-29.32,1.66-39.3,3.2-15.93,2.47-19.78,25.55-24.85,38.42-5.33,13.59-15.28,22.09-6.91,37.9,5.64,10.68,22.33,18.95,25.5,30.33,1.09,3.85.62,8.06-2.31,12.84-4.08,6.6-27.81,29.94-34.65,36.31-7.56,7.04-13.57,8.47-18.9,6.86-15.39-4.63-25.26-34.28-50.68-27.06-5.9,1.69-41.93,16.87-46.5,19.86-17,11.02-5.22,39.04-13.02,53.13-.78,1.41-1.47,2.41-2.52,3.36-5.25,4.74-12.9,2.18-29.62,1.82-3.3-.07-5.97-.03-7.54,0,1.4,16.11,2.81,32.23,4.21,48.34,4.61,1.55,8.5,2.22,11.16,2.54,8.97,1.1,16.2-.49,21.8-1.29,2.91-.42,5.8-1.12,8.63-2.08,21.55-7.23,40.52-28.93,43.3-50.92.49-3.9-.7-10.37.31-14.92.36-1.74,1.07-3.17,2.31-4.08,4.86-3.56,8.76-3.61,12.29-1.98,5.64,2.57,10.34,9.38,16.58,12.94,26.51,15.21,49.67,9.46,70.15-4.19,15.83-10.55,30.07-25.84,42.99-39.85,4.81-5.2,8.79-10.73,11.9-16.45,14.66-26.75,10.73-57.7-13.67-80.26-.52-.52-1.07-1.01-1.61-1.48l-.05-1.61c2.24-8.27,4.57-11.05,7.88-11.93,3.56-.96,8.27.36,15.2-.52,18.92-2.39,38.86-17.7,47.05-34.75,2.23-4.68,3.98-12.01,5.17-20.74.03-.08.03-.13.03-.21,2.78-20.3,2.73-48.11-.13-68.15Z"/>
        <line class="st2" x1="408.77" y1="116.94" x2="408.77" y2="116.89"/>
        <line class="st2" x1="408.77" y1="732.8" x2="408.77" y2="732.77"/>
      </g>
      <g>
        <path class="st1" d="M431.01,125.79v33.42c0,4.93-3.98,8.98-8.91,8.98-.08,0-.16,0-.24,0-6.78,0-13.53-.22-20.21-.67-4.74-.32-8.45-4.23-8.45-8.98v-33.52c0-5.25,4.48-9.34,9.71-8.94,6.26.48,12.58.72,18.95.72.03,0,.06,0,.09,0,4.99,0,9.06,3.99,9.06,8.98Z"/>
        <path class="st1" d="M337.79,134.56l10.33,31.79c1.52,4.69-1.01,9.77-5.7,11.3-.08.02-.15.05-.23.07-6.45,2.1-12.94,3.97-19.43,5.61-4.61,1.16-9.34-1.41-10.81-5.93l-10.36-31.88c-1.62-4.99,1.37-10.27,6.47-11.5,6.1-1.48,12.19-3.2,18.24-5.17.03,0,.06-.02.09-.03,4.75-1.54,9.85,1,11.39,5.74Z"/>
        <path class="st1" d="M251.85,171.72l19.65,27.04c2.9,3.99,2.06,9.6-1.93,12.51-.06.05-.13.09-.19.14-5.49,3.99-11.08,7.77-16.75,11.34-4.02,2.53-9.32,1.55-12.11-2.3l-19.7-27.12c-3.09-4.25-1.87-10.19,2.6-12.94,5.34-3.29,10.6-6.81,15.75-10.55.02-.02.05-.04.07-.05,4.04-2.93,9.67-2.09,12.61,1.94Z"/>
        <path class="st1" d="M181.6,233.61l27.04,19.65c3.99,2.9,4.93,8.5,2.03,12.49-.05.06-.09.13-.14.19-3.99,5.49-8.13,10.81-12.42,15.96-3.05,3.65-8.38,4.35-12.23,1.55l-27.12-19.7c-4.25-3.09-4.93-9.11-1.52-13.11,4.07-4.78,7.98-9.75,11.72-14.9.02-.02.04-.05.05-.07,2.93-4.04,8.55-4.98,12.59-2.05Z"/>
        <path class="st1" d="M133.91,314.18l31.79,10.33c4.69,1.52,7.31,6.56,5.79,11.25-.02.08-.05.15-.07.23-2.1,6.45-4.39,12.8-6.88,19.01-1.77,4.41-6.63,6.73-11.15,5.26l-31.88-10.36c-4.99-1.62-7.5-7.14-5.5-12,2.39-5.8,4.57-11.74,6.54-17.8,0-.03.02-.06.03-.09,1.54-4.75,6.6-7.38,11.34-5.84Z"/>
        <path class="st1" d="M113.45,405.55h33.42c4.93,0,8.98,3.98,8.98,8.91,0,.08,0,.16,0,.24,0,6.78-.22,13.53-.67,20.21-.32,4.74-4.23,8.45-8.98,8.45h-33.52c-5.25,0-9.34-4.48-8.94-9.71.48-6.26.72-12.58.72-18.95,0-.03,0-.06,0-.09,0-4.99,3.99-9.06,8.98-9.06Z"/>
        <path class="st1" d="M122.22,498.76l31.79-10.33c4.69-1.52,9.77,1.01,11.3,5.7.02.08.05.15.07.23,2.1,6.45,3.97,12.94,5.61,19.43,1.16,4.61-1.41,9.34-5.93,10.81l-31.88,10.36c-4.99,1.62-10.27-1.37-11.5-6.47-1.48-6.1-3.2-12.19-5.17-18.24,0-.03-.02-.06-.03-.09-1.54-4.75,1-9.85,5.74-11.39Z"/>
        <path class="st1" d="M159.38,584.7l27.04-19.65c3.99-2.9,9.6-2.06,12.51,1.93.05.06.09.13.14.19,3.99,5.49,7.77,11.08,11.34,16.75,2.53,4.02,1.55,9.32-2.3,12.11l-27.12,19.7c-4.25,3.09-10.19,1.87-12.94-2.6-3.29-5.34-6.81-10.6-10.55-15.75-.02-.02-.04-.05-.05-.07-2.93-4.04-2.09-9.67,1.94-12.61Z"/>
        <path class="st1" d="M221.27,654.96l19.65-27.04c2.9-3.99,8.5-4.93,12.49-2.03.06.05.13.09.19.14,5.49,3.99,10.81,8.13,15.96,12.42,3.65,3.05,4.35,8.38,1.55,12.23l-19.7,27.12c-3.09,4.25-9.11,4.93-13.11,1.52-4.78-4.07-9.75-7.98-14.9-11.72-.02-.02-.05-.04-.07-.05-4.04-2.93-4.98-8.55-2.05-12.59Z"/>
        <path class="st1" d="M301.84,702.65l10.33-31.79c1.52-4.69,6.56-7.31,11.25-5.79.08.02.15.05.23.07,6.45,2.1,12.8,4.39,19.01,6.88,4.41,1.77,6.73,6.63,5.26,11.15l-10.36,31.88c-1.62,4.99-7.14,7.5-12,5.5-5.8-2.39-11.74-4.57-17.8-6.54-.03,0-.06-.02-.09-.03-4.75-1.54-7.38-6.6-5.84-11.34Z"/>
        <path class="st1" d="M393.2,723.11v-33.42c0-4.93,3.98-8.98,8.91-8.98.08,0,.16,0,.24,0,6.78,0,13.53.22,20.21.67,4.74.32,8.45,4.23,8.45,8.98v33.52c0,5.25-4.48,9.34-9.71,8.94-6.26-.48-12.58-.72-18.95-.72-.03,0-.06,0-.09,0-4.99,0-9.06-3.99-9.06-8.98Z"/>
      </g>
    </g>
    <path class="st0" d="M455.86,551.24c-4.42,4.42-11.35,4.22-16.12.37-20-24.27-52.53-46.91-71.22-71.19-1.46-1.9-2.78-3.77-3.45-6.11l-.27-168.76c1.75-14.54,21.68-14.51,23.43,0l.19,161.34,68.28,68.81c3.4,4.74,3.37,11.32-.84,15.53Z"/>
  </g>
  <g>
    <path class="st0" d="M1147.3,258.53v370.92c0,18.68-14.17,33.49-33.49,33.49-14.17,0-23.18-7.72-32.2-19.32l-216.37-285.28v269.82c0,19.97-14.81,34.78-34.13,34.78s-34.13-14.81-34.13-34.78v-370.92c0-18.68,14.81-33.49,33.48-33.49,15.46,0,23.19,7.74,34.13,22.55l215.09,281.41-.64-269.18c0-19.97,14.81-34.78,34.13-34.78s34.13,14.81,34.13,34.78Z"/>
    <path class="st0" d="M1674.72,443.36c0,122.99-98.53,219.59-223.46,219.59s-222.81-96.6-222.81-219.59,97.88-219.6,222.81-219.6,223.46,97.24,223.46,219.6ZM1299.29,442.71c0,91.44,64.39,157.77,152.62,157.77s152.62-66.97,152.62-157.77-65.04-156.48-152.62-156.48-152.62,66.33-152.62,156.48Z"/>
    <path class="st0" d="M2121.01,442.71c0,126.86-94.66,213.15-231.83,213.15h-97.24c-20.61,0-35.42-14.81-35.42-35.42v-354.18c0-20.61,14.81-35.42,35.42-35.42h97.24c139.1,0,231.83,84.37,231.83,211.86ZM1824.78,292.66v302.02h63.75c97.24,0,161.64-60.53,161.64-151.97s-62.47-150.04-161.64-150.04h-63.75Z"/>
    <path class="st0" d="M2202.15,628.17v-369.63c0-19.97,14.17-34.78,34.13-34.78s34.13,14.81,34.13,34.78v369.63c0,19.97-14.17,34.78-34.13,34.78s-34.13-14.81-34.13-34.78Z"/>
    <path class="st0" d="M2377.31,628.17v-361.91c0-20.61,14.81-35.42,35.42-35.42h119.13c86.29,0,144.25,52.17,144.25,130.09s-58.6,130.72-144.25,130.72h-86.29v136.52c0,19.97-14.81,34.78-34.13,34.78s-34.13-14.81-34.13-34.78ZM2531.22,431.11c46.37,0,74.7-26.4,74.7-69.55s-28.33-70.2-74.7-70.2h-85.65v139.74h85.65Z"/>
    <path class="st0" d="M3080.53,632.04c0,17.39-14.17,30.91-31.55,30.91-11.59,0-21.9-5.8-30.27-17.39l-111.4-153.91h-86.29v136.52c0,19.97-14.81,34.78-34.13,34.78s-34.13-14.81-34.13-34.78v-362.55c0-19.97,14.81-34.78,34.77-34.78h119.78c86.29,0,144.25,52.17,144.25,130.09,0,54.08-28.34,96.59-74.7,117.19l93.38,128.15c7.09,9.01,10.3,17.39,10.3,25.76ZM2821.01,431.11h85.01c47.01,0,75.34-27.04,75.34-69.55s-28.98-70.2-75.34-70.2h-85.01v139.74Z"/>
    <path class="st0" d="M3569.95,443.36c0,122.99-98.53,219.59-223.46,219.59s-222.81-96.6-222.81-219.59,97.88-219.6,222.81-219.6,223.46,97.24,223.46,219.6ZM3194.53,442.71c0,91.44,64.39,157.77,152.62,157.77s152.62-66.97,152.62-157.77-65.04-156.48-152.62-156.48-152.62,66.33-152.62,156.48Z"/>
  </g>
</svg>